<?xml version="1.0" encoding="utf-8"?>
<!-- Generator: Adobe Illustrator 26.4.1, SVG Export Plug-In . SVG Version: 6.00 Build 0)  -->
<svg version="1.1" id="Layer_1" xmlns="http://www.w3.org/2000/svg" xmlns:xlink="http://www.w3.org/1999/xlink" x="0px" y="0px"
	 viewBox="0 0 7 11" style="enable-background:new 0 0 7 11;" xml:space="preserve">
<style type="text/css">
	.st0{fill:#A39762;}
</style>
<path class="st0" d="M0.8,11c-0.2,0-0.4-0.1-0.5-0.2C0.1,10.6,0,10.5,0,10.2C0,10,0.1,9.8,0.2,9.7l4.1-4.1L0.2,1.4
	C0.1,1.3,0,1.1,0,0.9c0-0.2,0.1-0.4,0.2-0.5c0.2-0.1,0.3-0.2,0.5-0.2c0.2,0,0.4,0.1,0.5,0.2L6,5c0.2,0.2,0.2,0.3,0.2,0.6
	C6.2,5.8,6.1,6,6,6.1l-4.7,4.7C1.2,10.9,1,11,0.8,11z"/>
</svg>
